<?xml version="1.0" encoding="UTF-8" standalone="no"?>
<!--

 Replace width="WIDTH" and height="HEIGHT" with:

 preserveAspectRatio="xMinYMin meet"
 viewBox="0 0 WIDTH HEIGHT"

 -->
<svg
   xmlns:svg="http://www.w3.org/2000/svg"
   xmlns="http://www.w3.org/2000/svg"
   version="1.0"
   preserveAspectRatio="xMinYMin meet"
   viewBox="0 0 328.14001 202.42125"
   id="svg2"
   xml:space="preserve"><defs
     id="defs5" /><path
     d="M 167.078,511.183 L 429.59,511.183 L 429.59,673.12 L 167.078,673.12 L 167.078,511.183 z"
     transform="matrix(1.25,0,0,-1.25,-208.8475,841.4)"
     id="path33"
     style="fill:#31529d;fill-opacity:1;fill-rule:nonzero;stroke:none" /><path
     d="M 198.711,-306.32 L 396.457,-306.32"
     transform="matrix(1.25,0,0,-1.25,-208.8475,-210.9622)"
     id="path37"
     style="fill:none;stroke:#ffffff;stroke-width:4.0710969;stroke-linecap:butt;stroke-linejoin:miter;stroke-miterlimit:3.86369991;stroke-dasharray:none;stroke-opacity:1" /><path
     d="M 269.355,641.085 C 269.355,638.437 268.441,636.452 266.199,634.312 C 265.078,634.007 264.672,633.956 263.5,633.956 C 261.82,633.956 261.16,634.058 259.531,634.667 L 259.531,649.23 C 262.434,649.179 263.652,648.925 265.129,648.163 C 265.945,647.753 266.656,647.245 267.27,646.581 C 268.645,645.155 269.355,643.222 269.355,641.085 z M 284.48,615.882 L 284.48,616.745 C 281.934,616.948 280.914,617.257 279.539,618.171 C 278.879,618.628 278.266,619.089 277.809,619.546 C 275.926,621.429 273.633,624.534 267.625,633.448 C 270.324,636.042 271.293,637.214 272.156,639.046 C 272.871,640.472 273.227,642.101 273.227,643.683 C 273.227,648.265 269.867,651.319 264.977,651.319 C 263.195,651.319 262.332,651.218 258.816,650.605 L 251.078,651.167 L 251.078,650.097 C 254.539,648.722 255.305,647.55 255.305,643.628 L 255.305,624.995 C 255.305,620.972 254.488,620.003 250.414,619.394 L 250.414,618.323 L 264.469,618.323 L 264.469,619.394 C 260.395,620.003 259.531,620.972 259.531,624.995 L 259.531,632.175 C 260.445,632.073 261.16,632.023 261.617,632.023 C 262.125,632.023 262.789,632.073 263.754,632.175 C 267.98,624.331 269.664,621.839 272.516,619.038 C 274.906,616.694 278.113,615.319 281.168,615.319 C 282.289,615.319 282.953,615.421 284.48,615.882 M 304.992,634.757 C 304.992,628.394 301.121,624.167 296.031,624.167 C 290.227,624.167 285.695,629.312 285.695,635.98 C 285.695,642.296 289.359,646.827 294.551,646.827 C 300.766,646.827 304.992,641.581 304.992,634.757 z M 309.727,635.37 C 309.727,643.109 303.77,648.659 295.266,648.659 C 286.457,648.659 280.957,643.159 280.957,635.37 C 280.957,627.784 286.965,622.284 295.215,622.284 C 303.82,622.284 309.727,627.632 309.727,635.37 M 337.371,646.987 L 337.371,648.058 L 327.902,648.058 L 327.902,646.937 C 330.09,646.683 330.957,645.714 330.957,644.8 C 330.957,644.237 330.348,642.765 329.48,641.081 L 326.121,634.718 L 321.027,644.292 C 320.824,644.648 320.672,645.054 320.672,645.409 C 320.672,646.124 321.23,646.632 322.453,646.987 L 322.453,648.058 L 313.695,648.058 L 313.695,646.987 C 315.527,646.023 316.141,645.308 317.156,643.526 L 322.098,634.667 C 322.758,633.444 323.168,631.765 323.168,629.933 L 323.168,627.944 C 323.168,625.296 321.59,624.077 317.719,623.718 L 317.719,622.651 L 332.992,622.651 L 332.992,623.718 C 329.023,624.023 327.395,625.296 327.395,627.944 L 327.395,629.933 C 327.395,632.12 327.801,633.749 328.82,635.534 L 332.992,642.964 C 334.316,645.308 334.879,646.023 337.371,646.987 M 357.766,632.87 L 349.008,632.87 L 353.285,644.835 L 357.766,632.87 z M 367.797,622.534 L 367.797,623.605 C 366.117,624.265 365.508,624.776 364.996,625.948 L 356.035,648.148 L 352.777,648.148 L 344.426,627.679 C 343.203,624.776 342.695,624.316 340.047,623.605 L 340.047,622.534 L 350.23,622.534 L 350.23,623.605 C 348.195,623.96 347.891,624.062 347.328,624.523 C 346.973,624.827 346.77,625.284 346.77,625.741 C 346.77,626.304 346.922,627.015 347.277,627.933 L 348.297,630.987 L 358.684,630.987 L 360.414,626.761 C 360.668,626.101 360.82,625.64 360.82,625.284 C 360.82,624.472 360.109,623.909 358.684,623.605 L 358.684,622.534 L 367.797,622.534 M 396.266,631.101 L 395.195,631.409 C 393.414,626.163 391.531,624.382 387.762,624.382 C 384.148,624.382 382.773,625.448 382.773,628.249 L 382.773,642.964 C 382.773,645.714 383.793,646.632 387.305,646.987 L 387.305,648.058 L 375.391,648.058 L 375.391,646.987 C 378.039,646.124 378.547,645.308 378.547,641.898 L 378.547,627.792 C 378.547,624.89 377.578,623.976 374.117,623.718 L 374.117,622.651 L 395.402,622.651"
     transform="matrix(1.25,0,0,-1.25,-208.8475,841.4)"
     id="path39"
     style="fill:#f4e9c9;fill-opacity:1;fill-rule:evenodd;stroke:none" /><path
     d="M 212.375,638.269 L 211.613,642.151 C 209.316,641.585 208.719,641.526 205.035,641.526 C 201.52,641.526 200.922,641.585 198.711,642.151 L 197.918,638.269 L 198.398,637.984 C 199.535,639.913 200.355,640.507 202.227,640.507 L 203.984,640.507 L 203.984,631.237 C 203.984,629.308 203.305,628.655 201.039,628.401 L 201.039,627.808 L 209.457,627.808 L 209.457,628.401 C 207.047,628.601 206.34,629.253 206.34,631.237 L 206.34,640.507 L 208.098,640.507 C 210.137,640.507 210.734,639.941 211.922,637.898 M 231.621,627.808 L 231.621,628.401 C 229.891,628.687 229.469,629.167 229.469,630.726 L 229.469,639.003 C 229.469,640.534 229.922,641.046 231.621,641.359 L 231.621,641.952 L 225.355,641.952 L 225.355,641.331 C 226.773,640.933 227.113,640.421 227.113,638.722 L 227.113,636.284 L 226.52,635.886 L 218.891,635.886 L 218.891,639.003 C 218.891,640.534 219.375,641.046 221.047,641.359 L 221.047,641.952 L 214.809,641.952 L 214.809,641.331 C 216.227,640.933 216.566,640.421 216.566,638.722 L 216.566,630.726 C 216.566,629.14 216.086,628.655 214.301,628.401 L 214.301,627.808 L 221.047,627.808 L 221.047,628.401 C 219.348,628.687 218.891,629.167 218.891,630.726 L 218.891,634.327 L 219.488,634.694 L 227.113,634.694 L 227.113,630.726 C 227.113,629.112 226.633,628.601 224.762,628.401 L 224.762,627.808 M 247.031,631.437 L 246.434,631.605 C 245.102,629.366 244.195,628.8 241.898,628.8 C 239.461,628.8 239.121,629.026 239.121,630.784 L 239.121,634.726 L 241.16,634.612 C 242.578,634.554 243.059,634.155 243.516,632.569 L 244.109,632.569 L 244.109,637.757 L 243.516,637.757 C 243.09,636.144 242.691,635.773 241.16,635.687 L 239.121,635.605 L 239.121,641.073 L 241.758,640.991 C 243.855,640.905 244.508,640.48 245.555,638.523 L 246.148,638.722 L 245.754,641.952 L 234.812,641.952 L 234.812,641.359 C 236.426,641.073 236.766,640.62 236.766,638.835 L 236.766,630.671 C 236.766,629.054 236.227,628.542 234.328,628.401 L 234.328,627.808 L 246.348,627.808"
     transform="matrix(1.25,0,0,-1.25,-208.8475,841.4)"
     id="path49"
     style="fill:#f4e9c9;fill-opacity:1;fill-rule:nonzero;stroke:none" /><path
     d="M 219.535,587.148 C 219.535,589.421 218.758,591.542 217.414,592.937 C 216.691,593.71 215.605,594.538 214.211,595.417 C 208.73,598.984 207.336,600.019 205.992,601.464 C 204.906,602.706 204.234,604.515 204.234,605.96 C 204.234,608.855 206.355,610.925 209.195,610.925 C 211.574,610.925 213.691,609.632 215.398,607.097 C 216.121,605.96 216.949,604.616 217.777,603.116 L 218.863,603.636 L 217.777,611.132 C 214.211,612.526 212.555,612.886 210.332,612.886 C 204.543,612.886 200.668,609.218 200.668,603.843 C 200.668,600.999 201.441,599.191 203.512,597.226 C 205.266,595.519 206.871,594.331 211.367,591.335 C 214.367,589.319 215.297,588.026 215.297,585.855 C 215.297,582.753 212.816,580.273 209.816,580.273 C 208.008,580.273 205.887,581.359 204.234,583.116 C 202.734,584.718 201.961,586.112 200.668,589.526 L 199.582,589.007 L 200.305,580.48 C 204.543,578.773 206.457,578.308 209.25,578.308 C 215.242,578.308 219.535,582.03 219.535,587.148 M 248.859,591.382 C 248.859,584.921 244.93,580.632 239.762,580.632 C 233.871,580.632 229.27,585.851 229.27,592.624 C 229.27,599.034 232.992,603.632 238.262,603.632 C 244.57,603.632 248.859,598.308 248.859,591.382 z M 253.668,592.003 C 253.668,599.859 247.621,605.495 238.988,605.495 C 230.047,605.495 224.461,599.913 224.461,592.003 C 224.461,584.304 230.562,578.718 238.934,578.718 C 247.672,578.718 253.668,584.148 253.668,592.003 M 283.629,586.734 L 282.594,586.991 C 280.164,582.339 276.961,580.374 273.445,580.374 C 268.43,580.374 263.727,585.441 263.727,592.366 C 263.727,598.878 267.293,603.378 273.082,603.378 C 274.996,603.378 277.117,602.808 278.199,601.827 C 279.285,600.843 280.371,599.14 281.406,596.862 L 282.336,597.175 L 282.336,603.222 C 278.562,604.773 276.91,605.187 273.809,605.187 C 264.504,605.187 258.922,599.706 258.922,591.8 C 258.922,587.714 260.883,583.734 264.09,581.202 C 266.621,579.237 269.207,578.464 273.602,578.464 C 276.598,578.464 278.047,578.667 281.715,579.601 M 303.672,579.03 L 303.672,580.116 C 300.055,580.323 299.02,581.253 299.02,584.253 L 299.02,599.448 C 299.02,602.448 300.055,603.378 303.672,603.737 L 303.672,604.823 L 290.488,604.823 L 290.488,603.737 C 293.852,603.273 294.781,602.394 294.781,599.448 L 294.781,584.253 C 294.781,581.359 293.695,580.374 290.129,580.116 L 290.129,579.03 M 334.211,585.648 L 333.125,585.956 C 330.695,581.874 329.043,580.843 324.855,580.843 C 320.41,580.843 319.789,581.253 319.789,584.46 L 319.789,591.644 L 323.512,591.437 C 326.098,591.335 326.977,590.609 327.801,587.714 L 328.887,587.714 L 328.887,597.175 L 327.801,597.175 C 327.027,594.23 326.305,593.558 323.512,593.401 L 319.789,593.245 L 319.789,603.222 L 324.598,603.066 C 328.422,602.913 329.609,602.136 331.523,598.569 L 332.609,598.933 L 331.887,604.823 L 311.934,604.823 L 311.934,603.737 C 314.879,603.222 315.5,602.394 315.5,599.14 L 315.5,584.253 C 315.5,581.308 314.52,580.374 311.055,580.116 L 311.055,579.03 L 332.973,579.03 M 365.555,598.105 L 364.16,605.187 C 359.973,604.151 358.887,604.05 352.168,604.05 C 345.758,604.05 344.672,604.151 340.641,605.187 L 339.191,598.105 L 340.07,597.589 C 342.141,601.101 343.637,602.187 347.051,602.187 L 350.254,602.187 L 350.254,585.288 C 350.254,581.773 349.016,580.581 344.879,580.116 L 344.879,579.03 L 360.23,579.03 L 360.23,580.116 C 355.836,580.48 354.543,581.667 354.543,585.288 L 354.543,602.187 L 357.75,602.187 C 361.473,602.187 362.559,601.155 364.727,597.433 M 394.5,603.737 L 394.5,604.823 L 384.887,604.823 L 384.887,603.687 C 387.109,603.429 387.988,602.448 387.988,601.515 C 387.988,600.948 387.367,599.448 386.488,597.741 L 383.078,591.284 L 377.906,600.999 C 377.699,601.362 377.543,601.773 377.543,602.136 C 377.543,602.859 378.113,603.378 379.355,603.737 L 379.355,604.823 L 370.465,604.823 L 370.465,603.737 C 372.324,602.757 372.945,602.034 373.977,600.226 L 378.992,591.23 C 379.664,589.991 380.078,588.284 380.078,586.421 L 380.078,584.409 C 380.078,581.718 378.477,580.48 374.547,580.116 L 374.547,579.03 L 390.055,579.03 L 390.055,580.116 C 386.023,580.425 384.367,581.718 384.367,584.409 L 384.367,586.421 C 384.367,588.648 384.781,590.3 385.816,592.109 L 390.055,599.655 C 391.398,602.034 391.965,602.757 394.5,603.737"
     transform="matrix(1.25,0,0,-1.25,-208.8475,841.4)"
     id="path55"
     style="fill:#f4e9c9;fill-opacity:1;fill-rule:nonzero;stroke:none" /><path
     d="M 212.707,556.421 C 212.707,552.855 210.539,550.487 207.684,550.487 C 204.43,550.487 201.891,553.37 201.891,557.109 C 201.891,560.648 203.945,563.187 206.855,563.187 C 210.34,563.187 212.707,560.245 212.707,556.421 L 212.707,556.421 z M 215.363,556.765 C 215.363,561.105 212.023,564.214 207.258,564.214 C 202.32,564.214 199.238,561.132 199.238,556.765 C 199.238,552.511 202.605,549.429 207.227,549.429 C 212.051,549.429 215.363,552.425 215.363,556.765 M 230.262,560.616 L 229.859,563.984 L 218.73,563.984 L 218.73,563.386 C 220.414,563.073 220.812,562.53 220.812,560.73 L 220.812,552.597 C 220.812,550.972 220.242,550.456 218.246,550.343 L 218.246,549.745 L 226.32,549.745 L 226.32,550.343 C 223.953,550.569 223.184,551.198 223.184,552.886 L 223.184,556.136 L 225.922,555.937 C 226.977,555.878 227.434,555.394 227.805,553.968 L 228.375,553.968 L 228.375,559.105 L 227.805,559.105 C 227.578,557.566 227.207,557.163 225.836,557.136 L 223.184,557.023 L 223.184,563.128 L 226.121,562.987 C 227.719,562.929 228.547,562.273 229.66,560.331 M 251.539,553.398 L 250.941,553.569 C 249.598,551.312 248.684,550.745 246.375,550.745 C 243.918,550.745 243.578,550.972 243.578,552.741 L 243.578,556.71 L 245.633,556.593 C 247.059,556.538 247.543,556.136 248,554.538 L 248.602,554.538 L 248.602,559.761 L 248,559.761 C 247.574,558.136 247.172,557.765 245.633,557.679 L 243.578,557.593 L 243.578,563.101 L 246.23,563.015 C 248.344,562.929 249,562.503 250.055,560.53 L 250.656,560.73 L 250.254,563.984 L 239.238,563.984 L 239.238,563.386 C 240.867,563.101 241.207,562.644 241.207,560.847 L 241.207,552.628 C 241.207,550.999 240.668,550.487 238.754,550.343 L 238.754,549.745 L 250.855,549.745 M 267.98,556.62 C 267.98,553.167 265.297,550.569 261.699,550.569 C 260.043,550.569 259.188,551.37 259.188,552.941 L 259.188,562.929 C 261.699,562.874 262.754,562.702 264.211,562.019 C 264.98,561.675 265.668,561.187 266.266,560.616 C 267.406,559.534 267.98,558.249 267.98,556.62 z M 270.488,556.792 C 270.488,559.476 269.09,561.616 266.496,562.929 C 264.98,563.698 263.328,564.015 260.844,564.015 C 259.93,564.015 258.676,563.956 257.02,563.843 L 254.879,563.73 L 254.879,563.128 C 256.477,562.987 256.848,562.558 256.848,560.761 L 256.848,552.886 C 256.848,550.999 256.336,550.515 254.277,550.343 L 254.277,549.745 L 258.617,549.745 C 260.129,549.632 261.355,549.601 262.301,549.601 C 267.207,549.601 270.488,552.456 270.488,556.792 M 280.906,549.745 L 280.906,550.343 C 278.91,550.456 278.336,550.972 278.336,552.628 L 278.336,561.019 C 278.336,562.671 278.91,563.187 280.906,563.386 L 280.906,563.984 L 273.629,563.984 L 273.629,563.386 C 275.484,563.128 275.996,562.644 275.996,561.019 L 275.996,552.628 C 275.996,551.026 275.398,550.487 273.43,550.343 L 273.43,549.745 M 302.168,563.386 L 302.168,563.984 L 295.461,563.984 L 295.461,563.386 C 297.43,563.128 297.941,562.585 298,560.933 L 298.227,552.886 L 288.781,563.984 L 284.844,563.984 L 284.844,563.386 C 286.898,562.757 287.355,562.073 287.355,559.761 L 287.012,552.683 C 286.926,550.999 286.414,550.487 284.441,550.343 L 284.441,549.745 L 291.523,549.745 L 291.523,550.343 C 289.438,550.429 288.809,551.026 288.781,552.683 L 288.609,560.874 L 298.43,549.257 L 299.398,550.058 L 299.77,560.933 C 299.797,562.558 300.281,563.101 302.168,563.386 M 316.148,553.339 C 316.148,551.741 314.777,550.401 313.207,550.401 C 311.266,550.401 310.523,551.198 310.523,553.284 L 310.523,556.335 C 313.379,556.05 314.293,555.851 315.262,555.194 C 315.805,554.823 316.148,554.14 316.148,553.339 z M 315.262,559.847 C 315.262,558.819 314.863,558.163 313.664,557.023 L 310.809,557.448 L 310.523,557.734 L 310.523,563.015 C 312.465,563.015 313.352,562.788 314.18,562.101 C 314.863,561.562 315.262,560.675 315.262,559.847 z M 318.801,553.226 C 318.801,554.425 317.973,555.538 316.66,556.109 C 316.203,556.308 315.977,556.394 314.465,556.823 C 315.918,557.765 316.52,558.308 316.918,559.077 C 317.203,559.589 317.316,560.163 317.316,560.788 C 317.316,562.702 315.719,564.159 313.609,564.159 C 312.75,564.159 312.809,564.159 309.727,563.812 L 306.387,564.015 L 306.387,563.413 C 307.93,562.956 308.156,562.472 308.156,560.476 L 308.156,552.999 C 308.156,550.972 307.727,550.515 305.703,550.343 L 305.703,549.745 L 309.926,549.745 C 311.383,549.601 312.551,549.515 313.465,549.515 C 316.605,549.515 318.801,551.026 318.801,553.226 M 337.688,563.386 L 337.688,563.984 L 331.582,563.984 L 331.582,563.386 C 333.438,563.073 333.863,562.585 333.949,560.847 L 334.094,555.48 L 334.094,555.14 C 334.094,553.569 333.805,552.569 333.035,551.859 C 332.266,551.144 331.125,550.714 329.98,550.714 C 328.871,550.714 327.758,551.144 326.898,551.859 C 325.844,552.741 325.473,553.683 325.473,555.425 L 325.473,560.874 C 325.473,562.616 326.016,563.128 328.043,563.386 L 328.043,563.984 L 321.336,563.984 L 321.336,563.386 C 322.789,562.874 323.105,562.359 323.105,560.589 L 323.105,555.194 C 323.105,553.339 323.332,552.456 323.988,551.569 C 324.387,551.058 324.875,550.659 325.414,550.343 C 326.527,549.745 327.785,549.429 329.324,549.429 C 331.238,549.429 332.98,549.8 333.922,550.8 C 334.918,551.859 335.375,552.253 335.52,555.651 L 335.719,560.847 C 335.773,562.53 336.09,562.956 337.688,563.386 M 350.07,559.589 C 350.07,558.362 349.555,557.48 348.5,556.765 C 347.902,556.593 347.703,556.566 347.074,556.566 C 346.246,556.566 345.988,556.737 345.359,556.991 L 345.359,562.956 C 347.785,562.956 348.188,562.73 349.043,562.046 C 349.785,561.444 350.07,560.503 350.07,559.589 z M 356.836,549.773 L 356.836,550.144 C 355.094,550.429 354.438,550.659 353.664,551.343 C 352.609,552.253 351.668,553.398 349.527,556.253 C 350.785,557.308 351.238,557.792 351.641,558.507 C 352.012,559.163 352.211,559.964 352.211,560.675 C 352.211,562.816 350.582,564.101 347.93,564.101 C 347.016,564.101 346.387,564.042 344.762,563.784 L 340.824,564.015 L 340.824,563.413 C 342.535,562.956 342.992,562.386 342.992,560.648 L 342.992,552.628 C 342.992,551.026 342.477,550.515 340.625,550.343 L 340.625,549.745 L 347.703,549.745 L 347.703,550.343 C 345.902,550.569 345.359,551.112 345.359,552.628 L 345.359,555.651 C 345.848,555.624 346.219,555.597 346.473,555.597 C 346.703,555.597 347.074,555.624 347.531,555.651 C 348.957,553.14 349.758,551.999 350.812,551.058 C 352.039,549.917 353.238,549.401 354.609,549.401 C 355.352,549.401 355.75,549.46 356.836,549.773 M 374.012,556.253 L 374.012,556.823 L 367.105,556.823 L 367.105,556.167 C 369.047,555.851 369.645,555.312 369.645,553.737 L 369.645,552.941 C 369.645,551.37 368.418,550.487 366.25,550.487 C 362.625,550.487 360.113,553.112 360.113,556.851 C 360.113,560.675 362.34,563.214 365.594,563.214 C 368.16,563.214 369.387,562.444 371.102,559.589 L 371.645,559.905 L 371.473,563.245 C 368.902,563.956 367.82,564.214 366.078,564.214 C 360.512,564.214 357.461,561.159 357.461,556.679 C 357.461,554.452 358.402,552.511 360.113,551.112 C 361.598,549.886 363.168,549.429 365.766,549.429 C 367.078,549.429 368.219,549.573 369.16,549.831 C 371.445,550.401 371.129,550.37 371.559,550.37 C 371.816,550.37 372.07,550.316 372.355,550.288 L 371.988,552.484 L 371.988,553.909 C 371.988,555.312 372.441,555.823 374.012,556.253 M 394.012,549.745 L 394.012,550.343 C 392.273,550.628 391.844,551.112 391.844,552.683 L 391.844,561.019 C 391.844,562.558 392.301,563.073 394.012,563.386 L 394.012,563.984 L 387.707,563.984 L 387.707,563.359 C 389.133,562.956 389.477,562.444 389.477,560.73 L 389.477,558.276 L 388.875,557.878 L 381.199,557.878 L 381.199,561.019 C 381.199,562.558 381.684,563.073 383.367,563.386 L 383.367,563.984 L 377.09,563.984 L 377.09,563.359 C 378.516,562.956 378.859,562.444 378.859,560.73 L 378.859,552.683 C 378.859,551.085 378.375,550.601 376.574,550.343 L 376.574,549.745 L 383.367,549.745 L 383.367,550.343 C 381.656,550.628 381.199,551.112 381.199,552.683 L 381.199,556.308 L 381.797,556.679 L 389.477,556.679 L 389.477,552.683 C 389.477,551.058 388.992,550.542 387.105,550.343 L 387.105,549.745"
     transform="matrix(1.25,0,0,-1.25,-208.8475,841.4)"
     id="path69"
     style="fill:#f4e9c9;fill-opacity:1;fill-rule:evenodd;stroke:none" /></svg>
